<?xml version="1.0" encoding="UTF-8" standalone="no"?>
<!DOCTYPE svg PUBLIC "-//W3C//DTD SVG 1.1//EN" "http://www.w3.org/Graphics/SVG/1.1/DTD/svg11.dtd">
<svg width="100%" height="100%" viewBox="0 0 4267 4267" version="1.1" xmlns="http://www.w3.org/2000/svg" xmlns:xlink="http://www.w3.org/1999/xlink" xml:space="preserve" xmlns:serif="http://www.serif.com/" style="fill-rule:evenodd;clip-rule:evenodd;stroke-linejoin:round;stroke-miterlimit:2;">
    <g transform="matrix(1,0,0,1,-13425,-4730)">
        <g id="Artboard6" transform="matrix(1,0,0,1,0,4730)">
            <rect x="13425" y="0" width="4266.667" height="4266.667" style="fill:none;"/>
            <clipPath id="_clip1">
                <rect x="13425" y="0" width="4266.667" height="4266.667"/>
            </clipPath>
            <g clip-path="url(#_clip1)">
                <g transform="matrix(1.27482,-0.177575,0.192932,1.385063,877.190154,1418.93283)">
                    <g id="yes">
                        <path d="M10086.995,3126.173C9967.062,3009.161 9875.364,2838.832 9875.364,2670.219L9875.364,1065.675C9875.364,749.376 10154.366,492.581 10498.018,492.581L11801.23,492.581C12046.433,492.581 12248.429,677.986 12375.826,802.28C12489.294,912.984 12565.613,1069.734 12565.613,1238.346L12565.613,1622.221C12565.613,1668.055 12550.669,1712.835 12522.714,1750.766L12287.741,2069.592L12522.714,2388.418C12550.669,2426.349 12565.613,2471.128 12565.613,2516.962L12565.613,2842.89C12565.613,3159.19 12286.611,3415.985 11942.959,3415.985L10639.746,3415.985C10394.544,3415.985 10214.392,3250.467 10086.995,3126.173ZM12142.887,2305.048L11813.177,1857.678L12142.887,1410.307L12142.887,1012.492C12142.887,830.266 11982.149,682.322 11784.164,682.322L10450.662,682.322C10252.677,682.322 10091.939,830.266 10091.939,1012.492L10091.939,2644.916C10091.939,2827.142 10252.677,2975.086 10450.662,2975.086L11784.164,2975.086C11982.149,2975.086 12142.887,2827.142 12142.887,2644.916L12142.887,2305.048ZM10930.292,1173.134L10741.938,1172.998C10741.992,1109.168 10685.817,1057.383 10616.467,1057.333C10547.117,1057.283 10490.854,1108.987 10490.8,1172.817L10302.446,1172.681C10302.582,1013.106 10443.24,883.846 10616.615,883.971C10789.989,884.096 10930.427,1013.559 10930.292,1173.134Z"/>
                    </g>
                </g>
            </g>
        </g>
    </g>
</svg>
