<?xml version="1.0" encoding="UTF-8" standalone="no"?>
<!DOCTYPE svg PUBLIC "-//W3C//DTD SVG 1.1//EN" "http://www.w3.org/Graphics/SVG/1.1/DTD/svg11.dtd">
<svg width="100%" height="100%" viewBox="0 0 4267 4267" version="1.1" xmlns="http://www.w3.org/2000/svg" xmlns:xlink="http://www.w3.org/1999/xlink" xml:space="preserve" xmlns:serif="http://www.serif.com/" style="fill-rule:evenodd;clip-rule:evenodd;stroke-linejoin:round;stroke-miterlimit:2;">
    <g transform="matrix(1,0,0,1,-13425,0)">
        <rect id="Artboard3" x="13425" y="0" width="4266.667" height="4266.667" style="fill:none;"/>
        <clipPath id="_clip1">
            <rect id="Artboard31" serif:id="Artboard3" x="13425" y="0" width="4266.667" height="4266.667"/>
        </clipPath>
        <g clip-path="url(#_clip1)">
            <g transform="matrix(1.27482,-0.177576,0.192932,1.385063,877.189819,1418.93972)">
                <path d="M10086.995,3126.173C9967.062,3009.161 9875.364,2838.832 9875.364,2670.219L9875.364,1065.675C9875.364,749.376 10154.366,492.581 10498.018,492.581L11801.23,492.581C12046.433,492.581 12248.429,677.986 12375.826,802.28C12489.294,912.984 12565.613,1069.734 12565.613,1238.346L12565.613,1622.221C12565.613,1668.055 12550.669,1712.835 12522.714,1750.766L12287.741,2069.592L12522.714,2388.418C12550.669,2426.349 12565.613,2471.128 12565.613,2516.962L12565.613,2842.89C12565.613,3159.19 12286.611,3415.985 11942.959,3415.985L10639.746,3415.985C10394.544,3415.985 10214.392,3250.467 10086.995,3126.173ZM12142.887,2305.048L11813.177,1857.678L12142.887,1410.307L12142.887,1012.492C12142.887,830.266 11982.149,682.322 11784.164,682.322L10450.662,682.322C10252.677,682.322 10091.939,830.266 10091.939,1012.492L10091.939,2644.916C10091.939,2827.142 10252.677,2975.086 10450.662,2975.086L11784.164,2975.086C11982.149,2975.086 12142.887,2827.142 12142.887,2644.916L12142.887,2305.048ZM10601.311,883.017C10774.562,883.017 10915.22,1012.479 10915.22,1171.941C10915.22,1331.402 10774.562,1460.864 10601.311,1460.864C10428.061,1460.864 10287.403,1331.402 10287.403,1171.941C10287.403,1012.479 10428.061,883.017 10601.311,883.017Z"/>
            </g>
        </g>
    </g>
</svg>
